<?xml version="1.0" standalone="no"?><!DOCTYPE svg PUBLIC "-//W3C//DTD SVG 1.1//EN" "http://www.w3.org/Graphics/SVG/1.1/DTD/svg11.dtd"><svg class="icon" width="200px" height="200.00px" viewBox="0 0 1024 1024" version="1.1" xmlns="http://www.w3.org/2000/svg"><path d="M768.384 173.6l145.984 143.52a38.4 38.4 0 0 1 3.424 50.912L820.96 492.8a12.8 12.8 0 0 0-2.688 7.84V825.6a38.4 38.4 0 0 1-38.4 38.4H244.16a38.4 38.4 0 0 1-38.4-38.4l-0.032-348.992a12.8 12.8 0 0 0-3.52-8.832l-92.96-97.184a38.4 38.4 0 0 1 0.864-53.92l145.504-143.072a38.4 38.4 0 0 1 53.856 0l97.856 96.192a12.8 12.8 0 0 0 8.96 3.68h191.424a12.8 12.8 0 0 0 8.96-3.68l97.92-96.192a38.4 38.4 0 0 1 53.824 0z m-35.872 72.096l-82.176 80.768a38.4 38.4 0 0 1-26.944 11.04h-222.816a38.4 38.4 0 0 1-26.88-11.04l-82.24-80.768a12.8 12.8 0 0 0-17.92 0l-91.616 90.048a12.8 12.8 0 0 0-0.256 17.984l77.408 80.96a38.4 38.4 0 0 1 10.656 26.56L269.696 787.2c0 7.04 5.76 12.8 12.8 12.8h458.976a12.8 12.8 0 0 0 12.8-12.8v-299.68a38.4 38.4 0 0 1 8.064-23.52l83.936-108.224a12.8 12.8 0 0 0-1.152-16.96l-94.688-93.12a12.8 12.8 0 0 0-17.92 0z m-70.72 383.616l-96 64a25.6 25.6 0 1 1-28.416-42.624l25.6-17.088h-171.392a25.6 25.6 0 1 1 0-51.2h256a25.6 25.6 0 0 1 14.208 46.912z m-153.056-185.6a25.6 25.6 0 0 1-7.104 35.52l-25.6 17.056h171.392a25.6 25.6 0 1 1 0 51.2h-256a25.6 25.6 0 0 1-14.208-46.88l96-64a25.6 25.6 0 0 1 35.52 7.104z" fill="#000000" /></svg>